<svg width="80" height="20" viewBox="0 0 80 20" fill="none" xmlns="http://www.w3.org/2000/svg">
<path d="M3.8 19H0.2V5H3.8V10.5H5.6L8.72 5H12.52L8.6 11.9L12.5 19H8.7L5.6 13.3H3.8V19ZM22.325 8.8C22.325 8 21.925 7.6 21.125 7.6H17.725C16.925 7.6 16.525 8 16.525 8.8V15.2C16.525 16 16.925 16.4 17.725 16.4H21.125C21.925 16.4 22.325 16 22.325 15.2V8.8ZM25.925 15.2C25.925 16.6 25.605 17.62 24.965 18.26C24.3383 18.8867 23.325 19.2 21.925 19.2H16.925C15.525 19.2 14.505 18.8867 13.865 18.26C13.2383 17.62 12.925 16.6 12.925 15.2V8.8C12.925 7.4 13.2383 6.38667 13.865 5.76C14.505 5.12 15.525 4.8 16.925 4.8H21.925C23.325 4.8 24.3383 5.12 24.965 5.76C25.605 6.38667 25.925 7.4 25.925 8.8V15.2ZM20.025 0.98H23.425V3.78H20.025V0.98ZM15.425 0.98H18.825V3.78H15.425V0.98ZM27.9344 5H36.3344C37.7344 5 38.7477 5.32 39.3744 5.96C40.0144 6.58667 40.3344 7.6 40.3344 9V10.8C40.3344 11.9067 40.1477 12.7667 39.7744 13.38C39.4144 13.9933 38.8344 14.4 38.0344 14.6L40.5344 19H36.6344L34.3344 14.8H31.5344V19H27.9344V5ZM36.7344 9C36.7344 8.2 36.3344 7.8 35.5344 7.8H31.5344V12H35.5344C36.3344 12 36.7344 11.6 36.7344 10.8V9ZM41.9089 16.1C45.5622 16.3 48.0356 16.4 49.3289 16.4C49.6356 16.4 49.8756 16.3133 50.0489 16.14C50.2356 15.9533 50.3289 15.7067 50.3289 15.4V13.6H45.7289C44.3289 13.6 43.3089 13.2867 42.6689 12.66C42.0422 12.02 41.7289 11 41.7289 9.6V9C41.7289 7.6 42.0422 6.58667 42.6689 5.96C43.3089 5.32 44.3289 5 45.7289 5H52.7489V7.8H46.5289C45.7289 7.8 45.3289 8.2 45.3289 9V9.4C45.3289 10.2 45.7289 10.6 46.5289 10.6H50.1289C51.4356 10.6 52.3956 10.9067 53.0089 11.52C53.6222 12.1333 53.9289 13.0933 53.9289 14.4V15.4C53.9289 16.7067 53.6222 17.6667 53.0089 18.28C52.3956 18.8933 51.4356 19.2 50.1289 19.2C49.4489 19.2 48.7289 19.1867 47.9689 19.16L46.1289 19.08C44.7689 19.0133 43.3622 18.92 41.9089 18.8V16.1ZM66.8273 19H55.7273V5H66.8273V7.8H59.3273V10.5H65.2273V13.3H59.3273V16.2H66.8273V19ZM75.2227 19H71.6227V7.8H67.4227V5H79.4227V7.8H75.2227V19Z" fill="white"/>
</svg>
