<svg width="16" height="14" viewBox="0 0 16 14" fill="none" xmlns="http://www.w3.org/2000/svg">
<path d="M8 14H1C0.448 14 0 13.552 0 13C0 12.448 0.448 12 1 12H8C8.552 12 9 12.448 9 13C9 13.552 8.552 14 8 14Z" fill="#042F4D"/>
<path d="M15 2.01562H8C7.448 2.01562 7 1.56763 7 1.01562C7 0.463625 7.448 0.015625 8 0.015625H15C15.552 0.015625 16 0.463625 16 1.01562C16 1.56862 15.552 2.01562 15 2.01562Z" fill="#042F4D"/>
<path d="M15 8H1C0.448 8 0 7.552 0 7C0 6.448 0.448 6 1 6H15C15.552 6 16 6.448 16 7C16 7.552 15.552 8 15 8Z" fill="#042F4D"/>
</svg>
